<svg width="40" height="35" viewBox="0 0 40 35" fill="none" xmlns="http://www.w3.org/2000/svg">
<path d="M34 12.1962C35.5913 12.1962 37.1174 12.8387 38.2426 13.9823C39.3679 15.1259 40 16.677 40 18.2943V24.3924C40 26.0098 39.3679 27.5608 38.2426 28.7045C37.1174 29.8481 35.5913 30.4906 34 30.4906V32.4541C34 34.6088 31.528 35.7858 29.9 34.4055L25.276 30.4906H20C18.4087 30.4906 16.8826 29.8481 15.7574 28.7045C14.6321 27.5608 14 26.0098 14 24.3924V18.2943C14 16.677 14.6321 15.1259 15.7574 13.9823C16.8826 12.8387 18.4087 12.1962 20 12.1962H34ZM28 0C29.5913 0 31.1174 0.642478 32.2426 1.7861C33.3679 2.92971 34 4.48079 34 6.09811V8.13082H18C15.8783 8.13082 13.8434 8.98745 12.3431 10.5123C10.8429 12.0371 10 14.1052 10 16.2616V24.3924C10 26.5146 10.8 28.4497 12.112 29.897L10 31.5069C8.352 32.7631 6 31.5679 6 29.4742V26.4251C4.4087 26.4251 2.88258 25.7827 1.75736 24.6391C0.632141 23.4954 0 21.9444 0 20.327V6.09811C0 4.48079 0.632141 2.92971 1.75736 1.7861C2.88258 0.642478 4.4087 0 6 0H28Z" fill="#ECF5F5"/>
</svg>
